<?xml version="1.0" encoding="UTF-8" standalone="no"?>
<!-- Generator: Adobe Illustrator 16.0.0, SVG Export Plug-In . SVG Version: 6.00 Build 0)  -->

<svg
   xmlns:dc="http://purl.org/dc/elements/1.1/"
   xmlns:cc="http://creativecommons.org/ns#"
   xmlns:rdf="http://www.w3.org/1999/02/22-rdf-syntax-ns#"
   xmlns:svg="http://www.w3.org/2000/svg"
   xmlns="http://www.w3.org/2000/svg"
   xmlns:sodipodi="http://sodipodi.sourceforge.net/DTD/sodipodi-0.dtd"
   xmlns:inkscape="http://www.inkscape.org/namespaces/inkscape"
   version="1.1"
   id="Capa_1"
   x="0px"
   y="0px"
   width="40"
   height="40"
   viewBox="0 0 39.999999 40.000002"
   xml:space="preserve"
   inkscape:version="0.91 r13725"
   sodipodi:docname="check.svg"><metadata
     id="metadata41"><rdf:RDF><cc:Work
         rdf:about=""><dc:format>image/svg+xml</dc:format><dc:type
           rdf:resource="http://purl.org/dc/dcmitype/StillImage" /><dc:title></dc:title></cc:Work></rdf:RDF></metadata><defs
     id="defs39" /><sodipodi:namedview
     pagecolor="#ffffff"
     bordercolor="#666666"
     borderopacity="1"
     objecttolerance="10"
     gridtolerance="10"
     guidetolerance="10"
     inkscape:pageopacity="0"
     inkscape:pageshadow="2"
     inkscape:window-width="837"
     inkscape:window-height="628"
     id="namedview37"
     showgrid="false"
     inkscape:zoom="2.417587"
     inkscape:cx="48.809502"
     inkscape:cy="48.808998"
     inkscape:window-x="550"
     inkscape:window-y="39"
     inkscape:window-maximized="0"
     inkscape:current-layer="Capa_1" /><g
     id="g3"
     transform="matrix(0.25609771,0,0,0.25609771,7.5000951,7.5002292)"
     style="fill:#ffffff"><path
       d="M 96.939,17.358 83.968,5.959 C 83.57,5.607 83.041,5.428 82.519,5.465 81.99,5.5 81.496,5.743 81.146,6.142 L 34.1,59.688 17.372,37.547 c -0.319,-0.422 -0.794,-0.701 -1.319,-0.773 -0.524,-0.078 -1.059,0.064 -1.481,0.385 L 0.794,47.567 c -0.881,0.666 -1.056,1.92 -0.39,2.801 l 30.974,40.996 c 0.362,0.479 0.922,0.771 1.522,0.793 0.024,0 0.049,0 0.073,0 0.574,0 1.122,-0.246 1.503,-0.68 L 97.12,20.18 c 0.73,-0.829 0.649,-2.094 -0.181,-2.822 z"
       id="path5"
       inkscape:connector-curvature="0"
       style="fill:#ffffff" /></g><g
     id="g7"
     transform="translate(0,-57.617996)" /><g
     id="g9"
     transform="translate(0,-57.617996)" /><g
     id="g11"
     transform="translate(0,-57.617996)" /><g
     id="g13"
     transform="translate(0,-57.617996)" /><g
     id="g15"
     transform="translate(0,-57.617996)" /><g
     id="g17"
     transform="translate(0,-57.617996)" /><g
     id="g19"
     transform="translate(0,-57.617996)" /><g
     id="g21"
     transform="translate(0,-57.617996)" /><g
     id="g23"
     transform="translate(0,-57.617996)" /><g
     id="g25"
     transform="translate(0,-57.617996)" /><g
     id="g27"
     transform="translate(0,-57.617996)" /><g
     id="g29"
     transform="translate(0,-57.617996)" /><g
     id="g31"
     transform="translate(0,-57.617996)" /><g
     id="g33"
     transform="translate(0,-57.617996)" /><g
     id="g35"
     transform="translate(0,-57.617996)" /></svg>