<?xml version="1.0" encoding="UTF-8" standalone="no"?>
<!-- Generator: Adobe Illustrator 18.1.1, SVG Export Plug-In . SVG Version: 6.00 Build 0)  -->

<svg
   xmlns:dc="http://purl.org/dc/elements/1.1/"
   xmlns:cc="http://creativecommons.org/ns#"
   xmlns:rdf="http://www.w3.org/1999/02/22-rdf-syntax-ns#"
   xmlns:svg="http://www.w3.org/2000/svg"
   xmlns="http://www.w3.org/2000/svg"
   xmlns:sodipodi="http://sodipodi.sourceforge.net/DTD/sodipodi-0.dtd"
   xmlns:inkscape="http://www.inkscape.org/namespaces/inkscape"
   version="1.1"
   id="Capa_1"
   x="0px"
   y="0px"
   viewBox="0 0 39.999999 39.999999"
   xml:space="preserve"
   inkscape:version="0.91 r13725"
   sodipodi:docname="icon.svg"
   width="40"
   height="40"><metadata
     id="metadata73"><rdf:RDF><cc:Work
         rdf:about=""><dc:format>image/svg+xml</dc:format><dc:type
           rdf:resource="http://purl.org/dc/dcmitype/StillImage" /><dc:title></dc:title></cc:Work></rdf:RDF></metadata><defs
     id="defs71" /><sodipodi:namedview
     pagecolor="#ffffff"
     bordercolor="#666666"
     borderopacity="1"
     objecttolerance="10"
     gridtolerance="10"
     guidetolerance="10"
     inkscape:pageopacity="0"
     inkscape:pageshadow="2"
     inkscape:window-width="1165"
     inkscape:window-height="729"
     id="namedview69"
     showgrid="false"
     fit-margin-top="0"
     fit-margin-left="0"
     fit-margin-right="0"
     fit-margin-bottom="0"
     inkscape:zoom="7.8724396"
     inkscape:cx="14.5"
     inkscape:cy="14.988999"
     inkscape:window-x="0"
     inkscape:window-y="0"
     inkscape:window-maximized="0"
     inkscape:current-layer="Capa_1" /><g
     id="g3"
     style="fill:#ffffff"
     transform="matrix(0.83394489,0,0,0.83394489,7.500417,7.5)"><path
       d="m 25.462,19.105 0,6.848 -20.947,0 0,-6.848 -4.026,0 0,8.861 c 0,1.111 0.9,2.012 2.016,2.012 l 24.967,0 c 1.115,0 2.016,-0.9 2.016,-2.012 l 0,-8.861 -4.026,0 z"
       id="path5"
       style="fill:#ffffff"
       inkscape:connector-curvature="0" /><path
       d="M 14.62,18.426 8.856,11.461 c 0,0 -0.877,-0.828 0.074,-0.828 0.951,0 3.248,0 3.248,0 0,0 0,-0.557 0,-1.416 0,-2.449 0,-6.906 0,-8.723 0,0 -0.129,-0.494 0.615,-0.494 0.75,0 4.035,0 4.572,0 0.536,0 0.524,0.416 0.524,0.416 0,1.762 0,6.373 0,8.742 0,0.768 0,1.266 0,1.266 0,0 1.842,0 2.998,0 1.154,0 0.285,0.867 0.285,0.867 0,0 -4.904,6.51 -5.588,7.193 -0.492,0.495 -0.964,-0.058 -0.964,-0.058 z"
       id="path7"
       style="fill:#ffffff"
       inkscape:connector-curvature="0" /><g
       id="g9"
       style="fill:#ffffff" /><g
       id="g11"
       style="fill:#ffffff" /><g
       id="g13"
       style="fill:#ffffff" /><g
       id="g15"
       style="fill:#ffffff" /><g
       id="g17"
       style="fill:#ffffff" /><g
       id="g19"
       style="fill:#ffffff" /><g
       id="g21"
       style="fill:#ffffff" /><g
       id="g23"
       style="fill:#ffffff" /><g
       id="g25"
       style="fill:#ffffff" /><g
       id="g27"
       style="fill:#ffffff" /><g
       id="g29"
       style="fill:#ffffff" /><g
       id="g31"
       style="fill:#ffffff" /><g
       id="g33"
       style="fill:#ffffff" /><g
       id="g35"
       style="fill:#ffffff" /><g
       id="g37"
       style="fill:#ffffff" /></g><g
     id="g39"
     transform="translate(-0.48899999,10.022)" /><g
     id="g41"
     transform="translate(-0.48899999,10.022)" /><g
     id="g43"
     transform="translate(-0.48899999,10.022)" /><g
     id="g45"
     transform="translate(-0.48899999,10.022)" /><g
     id="g47"
     transform="translate(-0.48899999,10.022)" /><g
     id="g49"
     transform="translate(-0.48899999,10.022)" /><g
     id="g51"
     transform="translate(-0.48899999,10.022)" /><g
     id="g53"
     transform="translate(-0.48899999,10.022)" /><g
     id="g55"
     transform="translate(-0.48899999,10.022)" /><g
     id="g57"
     transform="translate(-0.48899999,10.022)" /><g
     id="g59"
     transform="translate(-0.48899999,10.022)" /><g
     id="g61"
     transform="translate(-0.48899999,10.022)" /><g
     id="g63"
     transform="translate(-0.48899999,10.022)" /><g
     id="g65"
     transform="translate(-0.48899999,10.022)" /><g
     id="g67"
     transform="translate(-0.48899999,10.022)" /></svg>