<?xml version="1.0" encoding="UTF-8" standalone="no"?>
<!-- Generator: Adobe Illustrator 16.0.0, SVG Export Plug-In . SVG Version: 6.00 Build 0)  -->

<svg
   xmlns:dc="http://purl.org/dc/elements/1.1/"
   xmlns:cc="http://creativecommons.org/ns#"
   xmlns:rdf="http://www.w3.org/1999/02/22-rdf-syntax-ns#"
   xmlns:svg="http://www.w3.org/2000/svg"
   xmlns="http://www.w3.org/2000/svg"
   xmlns:sodipodi="http://sodipodi.sourceforge.net/DTD/sodipodi-0.dtd"
   xmlns:inkscape="http://www.inkscape.org/namespaces/inkscape"
   version="1.1"
   id="Capa_1"
   x="0px"
   y="0px"
   width="40"
   height="40"
   viewBox="0 0 40 40"
   xml:space="preserve"
   inkscape:version="0.91 r13725"
   sodipodi:docname="wait.svg"><metadata
     id="metadata48"><rdf:RDF><cc:Work
         rdf:about=""><dc:format>image/svg+xml</dc:format><dc:type
           rdf:resource="http://purl.org/dc/dcmitype/StillImage" /><dc:title></dc:title></cc:Work></rdf:RDF></metadata><defs
     id="defs46" /><sodipodi:namedview
     pagecolor="#ffffff"
     bordercolor="#666666"
     borderopacity="1"
     objecttolerance="10"
     gridtolerance="10"
     guidetolerance="10"
     inkscape:pageopacity="0"
     inkscape:pageshadow="2"
     inkscape:window-width="1140"
     inkscape:window-height="797"
     id="namedview44"
     showgrid="false"
     inkscape:zoom="5.0211698"
     inkscape:cx="23.5005"
     inkscape:cy="23.5005"
     inkscape:window-x="0"
     inkscape:window-y="0"
     inkscape:window-maximized="0"
     inkscape:current-layer="Capa_1" /><g
     id="g3"
     transform="matrix(0.53189226,0,0,0.53189226,7.5002659,7.5)"
     style="fill:#ffffff"><g
       id="Layer_1_64_"
       style="fill:#ffffff"><g
         id="g6"
         style="fill:#ffffff"><path
           d="m 22.432,22.429 c 0,0.591 0.479,1.067 1.068,1.067 0.589,0 1.068,-0.479 1.068,-1.067 10e-4,-1.25 0.445,-2.465 1.251,-3.421 1.793,-2.126 3.137,-4.431 3.988,-6.851 0.115,-0.327 0.065,-0.689 -0.135,-0.972 -0.201,-0.283 -0.525,-0.451 -0.872,-0.451 l -10.601,0 c -0.347,0 -0.672,0.168 -0.873,0.451 -0.2,0.283 -0.25,0.645 -0.135,0.972 0.853,2.42 2.195,4.725 3.988,6.851 0.807,0.956 1.252,2.172 1.253,3.421 z"
           id="path8"
           inkscape:connector-curvature="0"
           style="fill:#ffffff" /><path
           d="m 24.568,26.71 c 0,-0.59 -0.479,-1.067 -1.068,-1.067 -0.589,0 -1.068,0.479 -1.068,1.067 -10e-4,1.542 -0.922,3.067 -2.593,4.304 -3.574,2.639 -6.249,5.506 -7.951,8.52 -0.187,0.332 -0.184,0.736 0.009,1.062 0.19,0.329 0.542,0.53 0.922,0.53 l 21.364,0 c 0.379,0 0.73,-0.201 0.922,-0.53 0.191,-0.326 0.194,-0.73 0.008,-1.062 -1.701,-3.014 -4.377,-5.881 -7.95,-8.52 -1.673,-1.237 -2.594,-2.762 -2.595,-4.304 z"
           id="path10"
           inkscape:connector-curvature="0"
           style="fill:#ffffff" /><path
           d="m 42.192,42.729 -0.639,0 C 40.819,34.416 35.951,28.034 32.167,23.501 35.952,18.969 40.818,12.586 41.555,4.273 l 0.639,0 c 1.18,0 2.136,-0.957 2.136,-2.137 C 44.33,0.956 43.374,0 42.194,0 L 4.807,0 c -1.18,0 -2.136,0.957 -2.136,2.136 0,1.18 0.956,2.137 2.136,2.137 l 0.639,0 c 0.735,8.314 5.601,14.697 9.386,19.228 -3.784,4.532 -8.651,10.914 -9.387,19.228 l -0.638,0 c -1.18,0 -2.136,0.955 -2.136,2.135 0,1.181 0.956,2.138 2.136,2.138 l 2.671,0 32.044,0 2.672,0 c 1.18,0 2.136,-0.957 2.136,-2.138 0,-1.18 -0.957,-2.135 -2.138,-2.135 z m -32.464,0 c 0.803,-7.511 5.686,-13.295 9.335,-17.617 l 0.195,-0.231 c 0.672,-0.795 0.672,-1.959 0,-2.755 l -0.194,-0.23 C 15.416,17.573 10.531,11.789 9.728,4.277 l 27.544,0 c -0.803,7.512 -5.688,13.296 -9.336,17.619 l -0.193,0.23 c -0.672,0.795 -0.672,1.959 0,2.755 l 0.195,0.231 c 3.648,4.322 8.531,10.106 9.334,17.617 l -27.544,0 z"
           id="path12"
           inkscape:connector-curvature="0"
           style="fill:#ffffff" /></g></g></g><g
     id="g14"
     transform="translate(0,-7.0009995)" /><g
     id="g16"
     transform="translate(0,-7.0009995)" /><g
     id="g18"
     transform="translate(0,-7.0009995)" /><g
     id="g20"
     transform="translate(0,-7.0009995)" /><g
     id="g22"
     transform="translate(0,-7.0009995)" /><g
     id="g24"
     transform="translate(0,-7.0009995)" /><g
     id="g26"
     transform="translate(0,-7.0009995)" /><g
     id="g28"
     transform="translate(0,-7.0009995)" /><g
     id="g30"
     transform="translate(0,-7.0009995)" /><g
     id="g32"
     transform="translate(0,-7.0009995)" /><g
     id="g34"
     transform="translate(0,-7.0009995)" /><g
     id="g36"
     transform="translate(0,-7.0009995)" /><g
     id="g38"
     transform="translate(0,-7.0009995)" /><g
     id="g40"
     transform="translate(0,-7.0009995)" /><g
     id="g42"
     transform="translate(0,-7.0009995)" /></svg>